<svg width="167" height="44" viewBox="0 0 167 44" fill="none" xmlns="http://www.w3.org/2000/svg">
<g clip-path="url(#clip0_37_22)">
<path d="M42.7566 33.7044V7.78136H50.0187C51.9061 7.67711 53.7682 8.26039 55.2699 9.42618C55.896 9.94077 56.3968 10.5952 56.7333 11.3383C57.0697 12.0816 57.2329 12.8936 57.21 13.7113C57.2397 15.0845 56.8271 16.4299 56.035 17.5432C55.2269 18.6465 54.0916 19.4576 52.796 19.8572V19.929C54.3629 20.06 55.8299 20.7633 56.9254 21.9086C57.9841 23.0949 58.5403 24.657 58.4735 26.2567C58.5064 27.2762 58.3122 28.2902 57.9054 29.2229C57.4987 30.1556 56.8899 30.9831 56.1244 31.6436C54.4671 33.0508 52.3554 33.785 50.1966 33.7047L42.7566 33.7044ZM45.7467 10.5292V18.8985H48.8078C50.1958 18.9799 51.5665 18.5534 52.6715 17.6964C53.1443 17.2775 53.5168 16.7544 53.7606 16.167C54.0042 15.5797 54.1127 14.9436 54.0777 14.3072C54.0777 11.7883 52.446 10.5289 49.1828 10.5292H45.7467ZM45.7467 21.6284V30.957H49.8052C51.2726 31.0506 52.7236 30.6009 53.8896 29.6912C54.3734 29.2612 54.7551 28.7256 55.0064 28.1245C55.2577 27.5235 55.3719 26.8726 55.3407 26.2204C55.3407 23.1597 53.2879 21.6291 49.1824 21.6284H45.7467ZM65.6931 9.13089C65.697 8.88037 65.6505 8.63177 65.5563 8.4002C65.4622 8.16863 65.3223 7.95907 65.1456 7.78441C64.9681 7.60196 64.7557 7.45832 64.5216 7.36237C64.2874 7.26649 64.0363 7.22029 63.7838 7.22675C63.532 7.21979 63.2815 7.26663 63.0486 7.36407C62.8156 7.46158 62.6053 7.60756 62.4314 7.79265C62.2578 7.96765 62.1205 8.17623 62.0278 8.40616C61.935 8.63603 61.8886 8.8825 61.8914 9.13089C61.881 9.389 61.9243 9.64647 62.0188 9.88627C62.1133 10.1261 62.2567 10.3429 62.4395 10.5225C62.8064 10.866 63.2881 11.0552 63.7871 11.052C64.286 11.0487 64.7652 10.8533 65.1278 10.505C65.3119 10.3292 65.4575 10.1161 65.5549 9.87924C65.6523 9.64242 65.6994 9.38743 65.6931 9.13089ZM65.1976 15.307H62.298V33.6962H65.1977L65.1976 15.307ZM85.0623 22.445C85.1867 20.4506 84.6347 18.4731 83.4978 16.842C82.9437 16.1741 82.2436 15.6476 81.4526 15.3044C80.6616 14.9613 79.8029 14.8111 78.9448 14.8661C77.7311 14.8282 76.5313 15.1362 75.4818 15.7551C74.4316 16.3739 73.5728 17.279 73.0034 18.3678H72.9328V15.3147H70.0323V33.7049H72.9328V23.2163C72.8748 21.6839 73.3898 20.1861 74.3736 19.0234C74.8145 18.4982 75.3637 18.0786 75.9828 17.7946C76.6019 17.5105 77.2755 17.3692 77.9547 17.3806C80.7601 17.3806 82.1632 19.3258 82.1632 23.2163V33.7049H85.063L85.0623 22.445ZM105.533 32.2322C105.533 38.9722 102.351 42.3424 95.9858 42.3429C93.958 42.3847 91.9484 41.9482 90.1149 41.0679L90.8738 38.5249C92.418 39.4052 94.1621 39.8608 95.9327 39.8466C100.399 39.8466 102.633 37.4462 102.634 32.6456V30.6156H102.562C101.952 31.7349 101.046 32.659 99.9463 33.284C98.8471 33.9091 97.5978 34.2102 96.3386 34.1538C94.9488 34.1845 93.5814 33.7922 92.4124 33.0274C91.2434 32.2625 90.3266 31.1601 89.7788 29.8618C89.129 28.3634 88.809 26.7389 88.8418 25.1019C88.8418 21.966 89.5937 19.4759 91.0967 17.6318C91.8241 16.7281 92.7478 16.0082 93.7959 15.5282C94.8433 15.0483 95.9858 14.8216 97.1345 14.8659C98.2218 14.8058 99.3048 15.0524 100.263 15.5786C101.221 16.1047 102.017 16.8898 102.562 17.8469H102.634V15.3147H105.533V32.2322ZM102.634 25.39V22.6786C102.648 21.9805 102.522 21.2868 102.263 20.6398C102.005 19.9928 101.62 19.4061 101.131 18.9156C100.667 18.4235 100.11 18.0333 99.4921 17.7692C98.8751 17.5051 98.2106 17.3729 97.5405 17.3806C96.7313 17.3426 95.9257 17.5041 95.1913 17.8513C94.4569 18.1984 93.8162 18.7209 93.3243 19.3742C92.2286 21.0024 91.6962 22.9544 91.8122 24.9232C91.7297 26.6666 92.2419 28.3854 93.2628 29.7898C93.7177 30.3876 94.3053 30.8672 94.9789 31.1887C95.6518 31.5104 96.3903 31.6648 97.1338 31.6395C97.8808 31.6622 98.6228 31.517 99.3076 31.2143C99.9924 30.9115 100.602 30.4587 101.095 29.8884C102.149 28.6405 102.699 27.0331 102.634 25.39Z" fill="white"/>
<path d="M11.115 13.3859L14.8076 22.7376L20.6988 25.526L8.71069 32.5343V2.15856L0.201904 -0.866699V37.509L8.71236 42.3512L29.9876 29.9208V20.0944L11.115 13.3859Z" fill="white"/>
<path d="M129.163 33.7846V30.0677H129.092C128.536 31.3046 127.648 32.3573 126.53 33.1047C125.441 33.8491 124.156 34.2439 122.844 34.238C121.35 34.3051 119.89 33.7856 118.764 32.7874C118.249 32.3085 117.843 31.7216 117.573 31.0673C117.303 30.413 117.177 29.7069 117.202 28.998C117.202 25.7469 119.315 23.7887 123.539 23.1234L129.163 22.2715C129.163 18.2825 127.687 16.2881 124.736 16.2884C122.549 16.3591 120.461 17.2353 118.863 18.7539V16.7415C119.708 16.1188 120.654 15.6495 121.656 15.3545C122.7 14.9889 123.793 14.7903 124.896 14.7655C125.709 14.7147 126.522 14.8468 127.278 15.1523C128.034 15.4579 128.714 15.9294 129.27 16.533C130.294 17.7115 130.806 19.4369 130.805 21.7093V33.7848L129.163 33.7846ZM118.934 28.9258C118.91 29.4406 118.997 29.9544 119.188 30.4318C119.379 30.9092 119.671 31.3387 120.041 31.6905C120.87 32.4064 121.937 32.773 123.022 32.715C123.857 32.734 124.684 32.5639 125.445 32.2175C126.207 31.8709 126.882 31.3566 127.423 30.7118C128.613 29.2923 129.234 27.4703 129.163 25.6073V23.7946L124.129 24.5377C122.094 24.852 120.72 25.3265 120.006 25.9612C119.625 26.3459 119.332 26.8107 119.146 27.3229C118.961 27.8351 118.889 28.3821 118.934 28.9258Z" fill="white"/>
<path d="M149.281 33.785V30.4127H149.209C148.603 31.5848 147.676 32.5542 146.541 33.2048C145.349 33.8992 143.996 34.2561 142.622 34.2385C141.57 34.2732 140.525 34.0623 139.564 33.6223C138.605 33.1821 137.758 32.5245 137.088 31.6998C135.597 29.7403 134.849 27.3014 134.981 24.8284C134.953 23.0431 135.31 21.2732 136.025 19.6423C136.658 18.1844 137.686 16.9393 138.989 16.0528C140.284 15.1898 141.805 14.7413 143.353 14.7654C144.553 14.684 145.75 14.9663 146.793 15.5762C147.835 16.1863 148.676 17.0966 149.209 18.1922H149.28V6.29883H150.923V33.785H149.281ZM149.281 22.4896C149.308 21.6736 149.174 20.8606 148.887 20.0979C148.6 19.3352 148.167 18.6382 147.612 18.0477C147.057 17.4657 146.388 17.0086 145.649 16.7056C144.909 16.4026 144.115 16.2606 143.319 16.2889C142.404 16.2685 141.498 16.4642 140.671 16.8606C139.843 17.257 139.118 17.8432 138.552 18.5729C137.242 20.3226 136.584 22.4873 136.695 24.6827C136.587 26.7634 137.159 28.8222 138.32 30.5395C138.824 31.2398 139.49 31.8041 140.259 32.1834C141.028 32.5626 141.876 32.7452 142.73 32.7153C143.606 32.7533 144.48 32.6061 145.298 32.2832C146.115 31.9602 146.857 31.4683 147.478 30.8388C148.085 30.1882 148.557 29.4204 148.867 28.5811C149.177 27.7417 149.318 26.8477 149.281 25.9521V22.4896Z" fill="white"/>
<path d="M155.833 32.9689V30.9566C156.478 31.497 157.212 31.9173 158.001 32.1983C158.753 32.512 159.554 32.6871 160.367 32.7154C163.235 32.7154 164.67 31.5247 164.67 29.1434C164.671 28.7639 164.594 28.3882 164.445 28.0403C164.296 27.6922 164.078 27.3794 163.803 27.1217C162.863 26.3237 161.798 25.6896 160.652 25.2452C159.309 24.7343 158.079 23.9545 157.038 22.9519C156.269 22.1016 155.862 20.9776 155.904 19.824C155.89 19.1269 156.035 18.4361 156.328 17.8054C156.62 17.1748 157.053 16.6214 157.591 16.1887C158.785 15.2159 160.283 14.7109 161.812 14.7658C163.219 14.7278 164.61 15.0653 165.848 15.7446V17.6302C164.602 16.7748 163.137 16.3085 161.634 16.2887C160.585 16.241 159.553 16.5825 158.733 17.2495C158.375 17.5471 158.088 17.9238 157.895 18.3511C157.701 18.7783 157.607 19.2448 157.618 19.7148C157.588 20.2902 157.702 20.8637 157.948 21.3828C158.231 21.8488 158.616 22.2428 159.073 22.5347C159.805 23.0124 160.578 23.4218 161.384 23.7578C162.84 24.3231 164.183 25.1526 165.347 26.2058C166.058 27.0096 166.43 28.0642 166.383 29.1432C166.404 29.8482 166.263 30.5485 165.972 31.1888C165.681 31.8291 165.247 32.3919 164.705 32.8327C163.428 33.8225 161.847 34.3205 160.242 34.2383C158.677 34.2996 157.133 33.8553 155.833 32.9689Z" fill="white"/>
</g>
<defs>
<clipPath id="clip0_37_22">
<rect width="167" height="44" fill="white"/>
</clipPath>
</defs>
</svg>
