<svg width="99" height="44" viewBox="0 0 99 44" fill="none" xmlns="http://www.w3.org/2000/svg">
<g clip-path="url(#clip0_37_8)">
<path d="M23.5268 29.9573V37.0618H21.262V19.5212H27.2685C27.9855 19.5062 28.6984 19.6326 29.3659 19.8933C30.0335 20.154 30.6425 20.5437 31.1578 21.04C31.6704 21.5143 32.0792 22.0887 32.3588 22.7272C32.6383 23.3659 32.7826 24.0549 32.7826 24.7514C32.7826 25.448 32.6383 26.1371 32.3588 26.7756C32.0792 27.4142 31.6704 27.9886 31.1578 28.4629C30.6408 28.9551 30.0309 29.3406 29.3633 29.597C28.6958 29.8535 27.9838 29.976 27.2685 29.9572L23.5268 29.9573ZM23.5268 21.677V27.8015H27.3177C27.7339 27.8138 28.1481 27.7396 28.5339 27.5835C28.9196 27.4274 29.2684 27.1929 29.5579 26.895C29.9828 26.4602 30.2689 25.9099 30.3802 25.3136C30.4916 24.7172 30.4233 24.1014 30.1838 23.5437C29.9444 22.9859 29.5445 22.511 29.0345 22.1789C28.5245 21.8468 27.9272 21.6721 27.3177 21.677H23.5268Z" fill="white"/>
<path d="M38.8376 24.6643C40.2823 24.5846 41.7021 25.0628 42.8011 25.9993C43.2927 26.4706 43.6768 27.0415 43.9274 27.6734C44.178 28.3053 44.2892 28.9834 44.2535 29.6618V37.06H42.0871V35.3942H41.9888C41.598 36.0307 41.0475 36.5551 40.3915 36.9159C39.7355 37.2766 38.9965 37.4613 38.247 37.4519C37.0262 37.4906 35.8354 37.0709 34.9114 36.276C34.4821 35.9162 34.1389 35.4656 33.9068 34.957C33.6747 34.4485 33.5595 33.8948 33.5697 33.3363C33.5501 32.7656 33.6684 32.1985 33.9147 31.6826C34.1609 31.1668 34.5281 30.7174 34.9851 30.3721C36.083 29.5896 37.4153 29.201 38.7639 29.2699C39.9168 29.2255 41.0616 29.4787 42.0871 30.0049V29.4903C42.09 29.1093 42.0075 28.7324 41.8457 28.3871C41.6839 28.0418 41.4469 27.7366 41.1518 27.4939C40.5514 26.9555 39.7689 26.6624 38.9608 26.6731C38.3649 26.6596 37.7756 26.799 37.2496 27.0778C36.7236 27.3568 36.2787 27.7658 35.9576 28.2656L33.964 27.016C35.063 25.4484 36.6876 24.6644 38.8376 24.6643ZM35.9084 33.3853C35.9068 33.6721 35.974 33.9552 36.1046 34.2109C36.2352 34.4666 36.4254 34.6875 36.6592 34.8552C37.1601 35.2474 37.782 35.4552 38.4193 35.4431C39.3752 35.4416 40.2915 35.0628 40.9671 34.3899C41.3195 34.0801 41.6015 33.6992 41.7946 33.2726C41.9877 32.8459 42.0874 32.3833 42.0871 31.9154C41.2255 31.3132 40.1841 31.0196 39.1331 31.0825C38.3146 31.0529 37.5082 31.2846 36.8315 31.7438C36.552 31.9188 36.321 32.1608 36.1597 32.4476C35.9984 32.7344 35.912 33.0566 35.9084 33.3853Z" fill="white"/>
<path d="M46.8152 25.0571H48.9814V27.017H49.0799C49.7527 25.4821 51.1397 24.7145 53.2403 24.7142L53.7079 24.7631V27.115L52.6987 27.017C52.2229 27.0002 51.749 27.0771 51.3031 27.2431C50.8576 27.4092 50.4491 27.6612 50.1016 27.9847C49.7662 28.3 49.5018 28.6825 49.3259 29.1068C49.1496 29.5311 49.0659 29.9878 49.0799 30.4467V37.0612H46.8152V25.0571ZM60.9455 37.2571C60.041 37.2872 59.1611 36.9616 58.4959 36.3508C58.1629 36.0222 57.9024 35.628 57.7304 35.1936C57.5588 34.7591 57.48 34.2938 57.4992 33.8274V27.1152H55.3822V25.0571H57.4992V21.3823H59.7637V25.0571H62.7179V27.1152H59.7637V33.0927C59.7637 33.893 59.9199 34.436 60.2318 34.7217C60.5149 34.9963 60.8945 35.15 61.29 35.1504C61.4683 35.1507 61.6462 35.1302 61.8192 35.0892C61.984 35.0511 62.1445 34.9978 62.2993 34.93L63.0134 36.9387C62.3478 37.1628 61.6481 37.2705 60.9455 37.2571Z" fill="white"/>
<path d="M65.0054 25.0569H67.1723V26.7226H67.2704C67.6548 26.0974 68.2041 25.5891 68.8587 25.2528C69.5382 24.8698 70.3052 24.6674 71.0862 24.6649C71.7119 24.6248 72.3386 24.7165 72.9263 24.9339C73.5136 25.1513 74.0485 25.4895 74.4954 25.9265C75.2913 26.7677 75.6892 27.9641 75.6897 29.5155V37.0609H73.4247V29.6626C73.3757 27.7028 72.3828 26.7228 70.446 26.7228C70.0097 26.7185 69.5781 26.8147 69.1855 27.0039C68.7924 27.193 68.4487 27.47 68.1815 27.8132C67.5722 28.5454 67.2487 29.4717 67.2704 30.4221V37.0611H65.0058L65.0054 25.0569Z" fill="white"/>
<path d="M83.7636 37.4545C82.9462 37.4788 82.132 37.3298 81.3766 37.0173C80.6211 36.7047 79.9411 36.2358 79.3817 35.6416C78.2206 34.4019 77.6006 32.7544 77.6588 31.0606C77.6035 29.3797 78.2033 27.7428 79.3326 26.4916C79.8858 25.9226 80.5466 25.4684 81.2771 25.1552C82.008 24.8419 82.7938 24.676 83.5892 24.6669C84.3845 24.6578 85.1741 24.8057 85.9118 25.1021C86.6495 25.3985 87.3209 25.8375 87.887 26.3938C88.9457 27.5451 89.4749 29.1579 89.4749 31.232L89.4499 31.4771H79.9723C79.9661 32.0057 80.0675 32.53 80.2707 33.0184C80.474 33.5068 80.7744 33.9492 81.1541 34.3188C81.5111 34.668 81.9345 34.9432 82.3992 35.1282C82.8644 35.3133 83.3614 35.4046 83.8621 35.3968C85.3063 35.3968 86.4385 34.6781 87.2594 33.2408L89.2778 34.2209C88.7631 35.2055 87.9831 36.0282 87.0253 36.5971C86.0382 37.1759 84.9093 37.4726 83.7636 37.4545ZM80.1448 29.6152H87.0623C87.0383 29.22 86.9355 28.8335 86.7601 28.4782C86.5846 28.1228 86.34 27.8057 86.0406 27.5451C85.3491 26.9714 84.4658 26.6783 83.5666 26.7243C82.7606 26.7076 81.9763 26.9867 81.3636 27.5083C80.7331 28.0563 80.3044 28.7976 80.1448 29.6152Z" fill="white"/>
<path d="M93.8065 37.0614H91.5415V25.0574H93.708V27.0172H93.8065C94.0785 26.33 94.5778 25.7555 95.2218 25.3881C95.8442 24.9678 96.5746 24.7339 97.3268 24.7144C97.8987 24.6991 98.4681 24.7991 99.0006 25.0084L98.311 27.1887C97.8818 27.0528 97.4315 26.9947 96.9822 27.0172C96.5578 27.0181 96.1392 27.1105 95.7548 27.2881C95.3698 27.4658 95.0286 27.7243 94.7542 28.046C94.1371 28.6937 93.7974 29.5546 93.8065 30.4469V37.0614Z" fill="white"/>
<path d="M26.3921 9.27025V10.8003H30.0715C30.0343 11.2379 29.908 11.6635 29.7003 12.051C29.4927 12.4385 29.2079 12.78 28.8634 13.0546C28.0713 13.6314 27.0986 13.9084 26.1198 13.8358C25.1409 13.7631 24.2202 13.3457 23.5228 12.6583C22.7741 11.8835 22.3559 10.8504 22.3559 9.77553C22.3559 8.70064 22.7741 7.6675 23.5228 6.89282C23.892 6.50734 24.3378 6.20259 24.8317 5.99794C25.3257 5.79329 25.8571 5.69324 26.3921 5.70419C27.4247 5.69286 28.4206 6.08537 29.1654 6.79726L30.2499 5.71782C29.7407 5.22034 29.1378 4.82788 28.4757 4.56297C27.8137 4.29806 27.1056 4.16596 26.3921 4.17419C25.389 4.17323 24.4036 4.43719 23.5365 4.93922C22.6627 5.42632 21.937 6.13903 21.4361 7.00219C21.0646 7.63728 20.8241 8.33975 20.7287 9.06847C20.6333 9.79715 20.6848 10.5375 20.8804 11.2461C21.076 11.9547 21.4117 12.6174 21.8677 13.1954C22.3238 13.7734 22.8911 14.255 23.5365 14.6121C24.4035 15.1142 25.389 15.3782 26.3921 15.3771C27.0845 15.3999 27.7745 15.2861 28.4226 15.0422C29.0705 14.7983 29.6636 14.4292 30.1677 13.9563C30.7494 13.3362 31.1787 12.5902 31.4217 11.7771C31.6647 10.9639 31.7147 10.1057 31.568 9.27006L26.3921 9.27025Z" fill="white"/>
<path d="M35.8386 8.1628C35.3577 8.15041 34.8795 8.23616 34.4332 8.41474C33.9869 8.59328 33.5821 8.86091 33.2437 9.2011C32.6199 9.79883 32.2243 10.5939 32.125 11.45C32.0256 12.3061 32.2286 13.17 32.6991 13.8935C33.1695 14.617 33.8783 15.1552 34.7038 15.4157C35.5293 15.6762 36.4201 15.6428 37.2236 15.3213C38.0271 14.9998 38.6932 14.4102 39.1077 13.6536C39.5223 12.8969 39.6594 12.0203 39.4957 11.174C39.332 10.3277 38.8775 9.56448 38.2103 9.0151C37.543 8.46573 36.7046 8.16442 35.8386 8.1628ZM37.2803 13.3271C37.0953 13.5254 36.8712 13.6836 36.622 13.7917C36.3727 13.8999 36.1037 13.9557 35.8318 13.9557C35.56 13.9557 35.291 13.8999 35.0418 13.7917C34.7925 13.6836 34.5684 13.5254 34.3834 13.3271C33.9887 12.9053 33.7766 12.3458 33.7932 11.7696C33.7818 11.4839 33.8281 11.1988 33.9295 10.9312C34.0308 10.6637 34.1852 10.4191 34.3834 10.212C34.5698 10.0138 34.7952 9.85565 35.0455 9.74756C35.2958 9.63943 35.5658 9.58366 35.8387 9.58366C36.1116 9.58366 36.3815 9.63943 36.6319 9.74756C36.8822 9.85565 37.1076 10.0138 37.294 10.212C37.4921 10.4191 37.6465 10.6637 37.7479 10.9313C37.8492 11.1988 37.8956 11.4839 37.8842 11.7696C37.8967 12.3476 37.6797 12.9073 37.2803 13.3271Z" fill="white"/>
<path d="M57.7074 4.55762H56.1147V15.1597H57.7074V4.55762Z" fill="white"/>
<path d="M43.7732 8.1628C43.2923 8.15041 42.8141 8.23616 42.3678 8.41474C41.9216 8.59328 41.5168 8.86091 41.1784 9.2011C40.5547 9.79878 40.1592 10.5938 40.0598 11.4499C39.9605 12.306 40.1634 13.1698 40.6339 13.8933C41.1044 14.6167 41.8131 15.1548 42.6386 15.4153C43.464 15.6758 44.3548 15.6424 45.1582 15.3209C45.9617 14.9994 46.6277 14.4098 47.0422 13.6532C47.4567 12.8966 47.5938 12.02 47.4301 11.1738C47.2664 10.3275 46.8119 9.56439 46.1447 9.01501C45.4775 8.46568 44.6391 8.16437 43.7732 8.1628ZM45.2147 13.3271C45.0297 13.5254 44.8055 13.6836 44.5564 13.7917C44.3071 13.8999 44.0382 13.9557 43.7663 13.9557C43.4944 13.9557 43.2255 13.8999 42.9763 13.7917C42.7271 13.6836 42.5029 13.5254 42.318 13.3271C41.9232 12.9053 41.7112 12.3458 41.7278 11.7696C41.7163 11.4839 41.7626 11.1987 41.864 10.9312C41.9654 10.6637 42.1198 10.4191 42.318 10.212C42.5044 10.0138 42.7297 9.85565 42.98 9.74756C43.2303 9.63947 43.5003 9.58371 43.7732 9.58371C44.046 9.58371 44.316 9.63947 44.5663 9.74756C44.8166 9.85565 45.0419 10.0138 45.2284 10.212C45.4266 10.4191 45.581 10.6636 45.6825 10.9312C45.7839 11.1987 45.8303 11.4838 45.8189 11.7696C45.8314 12.3477 45.6142 12.9073 45.2147 13.3271Z" fill="white"/>
<path d="M62.0743 13.9552C61.7053 13.9679 61.341 13.8706 61.0276 13.6759C60.7148 13.4811 60.4673 13.1978 60.3169 12.8622L65.1631 10.8675L64.9987 10.4576C64.8737 10.127 64.7055 9.81459 64.4974 9.5284C64.298 9.25268 64.0601 9.00667 63.7905 8.79762C63.5262 8.59311 63.2292 8.43385 62.912 8.32625C62.5847 8.21581 62.2416 8.16043 61.8961 8.16234C61.439 8.15273 60.9854 8.23901 60.5644 8.41554C60.1434 8.59206 59.7642 8.85491 59.4523 9.18692C58.7992 9.88691 58.4493 10.8144 58.4777 11.7691C58.4657 12.2443 58.5507 12.7169 58.7276 13.1584C58.9044 13.5999 59.1697 14.0011 59.5071 14.3376C59.8901 14.7104 60.3505 14.995 60.8561 15.1713C61.3616 15.3475 61.8994 15.4112 62.4324 15.3578C62.9654 15.3044 63.4801 15.1351 63.94 14.8621C64.4004 14.589 64.7944 14.2188 65.0948 13.7775L63.8592 12.9582C63.6747 13.2649 63.4133 13.5182 63.0999 13.6931C62.7871 13.868 62.4333 13.9583 62.0743 13.9552ZM60.6052 10.1571C60.7768 9.97103 60.9844 9.82177 61.2156 9.71841C61.4472 9.61506 61.6971 9.55973 61.9508 9.5559C62.244 9.55131 62.5328 9.62439 62.788 9.76767C63.0163 9.88839 63.196 10.0838 63.296 10.321L60.0559 11.6602C60.0372 11.3854 60.0761 11.1097 60.1708 10.8508C60.2654 10.592 60.4135 10.3555 60.6052 10.1571Z" fill="white"/>
<path d="M53.5076 8.96925H53.4529C53.2174 8.69965 52.9228 8.48697 52.5921 8.34732C52.2615 8.20771 51.9035 8.14478 51.5449 8.16333C51.0855 8.16218 50.6309 8.25635 50.2099 8.43982C49.7894 8.62332 49.4116 8.89206 49.1012 9.2289C48.4404 9.9142 48.0713 10.8272 48.0713 11.777C48.0713 12.7268 48.4404 13.6398 49.1012 14.325C49.4145 14.6571 49.7932 14.9217 50.2137 15.1027C50.6338 15.2836 51.0869 15.377 51.5449 15.3771C51.9049 15.3954 52.2639 15.3309 52.595 15.1887C52.9257 15.0466 53.2193 14.8305 53.4529 14.5573H53.5076V14.9261C53.5076 16.4381 52.8627 17.1941 51.5723 17.1941C51.1768 17.1994 50.7904 17.0744 50.4737 16.8387C50.1517 16.5998 49.9004 16.2788 49.7461 15.9096L48.3596 16.4834C48.4923 16.7952 48.6682 17.0872 48.8811 17.3511C49.0911 17.6099 49.3386 17.8357 49.6159 18.0208C49.898 18.2088 50.2056 18.356 50.529 18.4579C50.8664 18.5638 51.2186 18.6167 51.5723 18.615C52.0399 18.641 52.508 18.5673 52.9449 18.3989C53.3817 18.2304 53.7772 17.9711 54.1055 17.6382C54.7576 16.8628 55.0844 15.867 55.0181 14.8579V8.38185H53.5081L53.5076 8.96925ZM53.0549 13.3413C52.8848 13.537 52.6738 13.6934 52.4364 13.7995C52.1995 13.9058 51.9419 13.9592 51.6819 13.9562C51.4104 13.9602 51.1413 13.9061 50.8928 13.7977C50.6438 13.6893 50.4218 13.529 50.2406 13.3276C49.8663 12.8962 49.6611 12.3445 49.6639 11.7744C49.6663 11.2044 49.8759 10.6544 50.2541 10.2263C50.4324 10.0241 50.652 9.86211 50.8981 9.7514C51.1446 9.64063 51.4118 9.58362 51.6819 9.5842C51.9433 9.57989 52.2029 9.63413 52.4403 9.74288C52.6777 9.85164 52.8877 10.0122 53.0549 10.2126C53.4187 10.6534 53.6177 11.2064 53.6177 11.7769C53.6177 12.3475 53.4187 12.9004 53.0549 13.3413Z" fill="white"/>
<path d="M11.8717 -0.86377H0.319092V42.824H11.8717V-0.86377Z" fill="white"/>
</g>
<defs>
<clipPath id="clip0_37_8">
<rect width="99" height="44" fill="white"/>
</clipPath>
</defs>
</svg>
