<svg width="113" height="44" viewBox="0 0 113 44" fill="none" xmlns="http://www.w3.org/2000/svg">
<g clip-path="url(#clip0_37_28)">
<path d="M41.4819 -0.606934H45.7304L52.9562 12.4567L60.1792 -0.606934H64.3389V20.873H60.8691V4.40391L54.5336 15.7963H51.29L44.946 4.40391V20.873H41.4819V-0.606934Z" fill="white"/>
<path fill-rule="evenodd" clip-rule="evenodd" d="M17.5436 3.84909C19.525 1.13594 21.7155 -1 24.5167 -1C29.8052 -1 34.1607 5.81639 34.1628 13.9321C34.1628 18.8828 32.0576 21.9851 28.2765 21.9851C24.9821 21.9851 23.163 20.1129 19.8986 14.5828L18.4745 12.155L18.2226 11.7291C17.8512 11.0936 17.474 10.4616 17.091 9.83319L14.5759 14.3299C11.004 20.6534 8.99276 21.9851 6.20016 21.9851C2.31866 21.9851 -3.14344e-08 18.926 0 14.0748C5.02198e-08 6.32442 4.25941 -1 9.81694 -1C10.498 -1 11.1513 -0.915687 11.7897 -0.736251C12.4515 -0.55033 13.0942 -0.260636 13.739 0.143632C14.9709 0.919746 16.2028 2.12175 17.5436 3.84909ZM20.7804 8.65708C20.2423 7.77071 19.7257 6.95573 19.2282 6.20773L19.2154 6.19039C21.0195 3.36915 22.5097 1.96609 24.2797 1.96609C27.9584 1.96609 30.9026 7.45076 30.9026 14.1872C30.9026 16.7555 30.0699 18.245 28.3512 18.245C26.7008 18.245 25.913 17.1424 22.7788 12.0404L20.7804 8.65708ZM10.3464 2.79625C11.8943 3.01245 13.3035 4.16689 15.3424 7.1222C14.1659 8.9463 13.0023 10.7789 11.8516 12.6198C8.95433 17.216 7.95303 18.2472 6.34107 18.2472C4.68215 18.2472 3.69362 16.7728 3.69362 14.1396C3.69362 8.51444 6.46491 2.7595 9.76997 2.7595C9.96424 2.7595 10.1564 2.77031 10.3464 2.79625Z" fill="white"/>
<path d="M75.5136 21.2377C74.0334 21.2692 72.5703 20.9029 71.2794 20.176C70.0738 19.4749 69.089 18.4532 68.4333 17.2256C67.735 15.8921 67.3861 14.4039 67.4144 12.8987C67.3828 11.382 67.7238 9.88244 68.4077 8.52888C69.0377 7.30121 69.9969 6.27102 71.1788 5.55843C72.41 4.82583 73.8212 4.45381 75.2527 4.48243C78.0528 4.37082 80.6321 6.00486 81.7227 8.58608C82.3468 10.0284 82.6503 11.5881 82.6135 13.1591V14.1064H70.8497C71.0015 15.2911 71.5658 16.3843 72.4389 17.197C73.3232 17.9639 74.4657 18.3674 75.6364 18.3245C76.547 18.3446 77.4543 18.1871 78.3044 17.8609C79.0862 17.5318 79.799 17.0596 80.4061 16.4644L82.2436 18.7223C80.4172 20.4021 78.0015 21.3035 75.5136 21.2377ZM78.0469 8.51745C77.2887 7.75908 76.2461 7.35559 75.1726 7.40425C74.1024 7.37562 73.063 7.78482 72.2983 8.53748C71.4909 9.3702 70.9758 10.4405 70.8326 11.5909H79.2892C79.2583 10.4491 78.8201 9.35588 78.0502 8.50885L78.0469 8.51745Z" fill="white"/>
<path d="M86.8234 7.70436H83.6285V4.86842H86.8234V0.172363H90.1648V4.86842H95.0087V7.70724H90.1648V14.893C90.1648 16.0863 90.3678 16.9391 90.7771 17.4542C91.1838 17.9693 91.8854 18.224 92.8788 18.2183C93.2533 18.2211 93.6258 18.2039 94.0009 18.1639C94.3097 18.1324 94.6447 18.0809 95.0113 18.0208V20.8253C94.5935 20.9484 94.1671 21.0399 93.7348 21.1057C93.2395 21.1773 92.7382 21.2145 92.2369 21.2116C88.6275 21.2116 86.8234 19.2399 86.8267 15.2936L86.8234 7.70436Z" fill="white"/>
<path d="M112.44 20.8734H109.156V18.6356C108.59 19.4598 107.825 20.1236 106.932 20.573C105.978 21.0394 104.928 21.2741 103.866 21.254C102.538 21.2798 101.229 20.902 100.118 20.1751C99.0078 19.434 98.1202 18.4066 97.5473 17.1989C96.9035 15.8483 96.5829 14.3659 96.6111 12.8692C96.5803 11.3668 96.9061 9.88162 97.5644 8.53088C98.1544 7.32325 99.0623 6.29877 100.193 5.57185C101.347 4.845 102.689 4.47012 104.052 4.49587C105.068 4.47871 106.076 4.69619 106.995 5.13117C107.851 5.54039 108.595 6.15278 109.159 6.91687V4.86503H112.443V20.8734H112.44ZM109.094 10.4769C108.764 9.60113 108.171 8.84854 107.399 8.32198C106.608 7.78971 105.675 7.51494 104.722 7.53497C103.425 7.47777 102.169 8.00433 101.301 8.9716C100.456 9.9331 100.029 11.2295 100.027 12.8663C100.024 14.5033 100.433 15.8053 101.258 16.7726C102.085 17.7398 103.314 18.275 104.587 18.2177C105.569 18.2263 106.531 17.9402 107.347 17.3964C108.143 16.8842 108.755 16.1316 109.096 15.2501L109.094 10.4769Z" fill="white"/>
<path d="M0.00720215 42.7996L0.00720221 32.6348H3.82337C4.5992 32.6348 5.2233 32.7378 5.6928 32.9438C6.16231 33.1499 6.52875 33.4647 6.79496 33.8939C7.06124 34.3203 7.19296 34.7696 7.19296 35.2361C7.19296 35.671 7.07556 36.0802 6.83793 36.4637C6.6003 36.8472 6.24533 37.1563 5.7701 37.3938C6.38561 37.5741 6.85797 37.8803 7.18718 38.3152C7.51646 38.7502 7.68247 39.2625 7.68247 39.8548C7.68247 40.3299 7.58228 40.7735 7.38191 41.1827C7.18146 41.5919 6.9324 41.9067 6.63755 42.1299C6.34267 42.3531 5.9705 42.5191 5.5239 42.6335C5.07729 42.748 4.53049 42.8024 3.88349 42.8024H0.00720215V42.7996ZM1.35274 36.9073H3.5514C4.14687 36.9073 4.57629 36.8672 4.83395 36.7899C5.17463 36.687 5.43515 36.5181 5.60691 36.2834C5.78155 36.0488 5.86744 35.7511 5.86744 35.3963C5.86744 35.0586 5.78727 34.761 5.62409 34.5063C5.46091 34.2488 5.23188 34.0742 4.93128 33.9798C4.63069 33.8854 4.11538 33.8367 3.38535 33.8367H1.35274V36.9073ZM1.35274 41.6005H3.88349C4.31863 41.6005 4.6221 41.5833 4.7996 41.5519C5.10879 41.4975 5.3693 41.403 5.57542 41.2743C5.78441 41.1455 5.95332 40.9566 6.08787 40.7105C6.22243 40.4644 6.28827 40.1782 6.28827 39.8548C6.28827 39.4771 6.19093 39.1451 5.99626 38.8675C5.80159 38.5871 5.53248 38.3925 5.18894 38.2781C4.8454 38.1636 4.34727 38.1092 3.70026 38.1092H1.34987V41.6005H1.35274Z" fill="white"/>
<path d="M14.8629 42.8015V41.7198C14.2903 42.5525 13.5117 42.9675 12.524 42.9675C12.0888 42.9675 11.6823 42.8844 11.3073 42.7185C10.9294 42.5525 10.6517 42.3436 10.4684 42.0918C10.2853 41.8399 10.1564 41.5309 10.0848 41.1646C10.0333 40.9185 10.0076 40.5322 10.0076 39.9999V35.4383H11.2558V39.522C11.2558 40.1744 11.2815 40.6123 11.333 40.8384C11.4103 41.1675 11.5793 41.425 11.8312 41.611C12.086 41.7971 12.4009 41.8914 12.7759 41.8914C13.1509 41.8914 13.5031 41.7942 13.8295 41.6024C14.1587 41.4107 14.3905 41.1503 14.5251 40.8183C14.6625 40.4864 14.7283 40.0084 14.7283 39.3789V35.4326H15.9766V42.7957H14.8629V42.8015Z" fill="white"/>
<path d="M17.437 40.6032L18.6709 40.4086C18.7396 40.9037 18.9343 41.2814 19.2492 41.5447C19.5669 41.808 20.0078 41.9397 20.5775 41.9397C21.1501 41.9397 21.5766 41.8223 21.8543 41.5905C22.132 41.3558 22.2695 41.084 22.2695 40.7692C22.2695 40.4888 22.1464 40.2656 21.903 40.1024C21.7312 39.9908 21.3075 39.8506 20.6262 39.6789C19.7101 39.4471 19.0745 39.2468 18.7224 39.078C18.3674 38.9091 18.1011 38.6744 17.9179 38.3768C17.7347 38.0792 17.6431 37.7501 17.6431 37.3895C17.6431 37.0605 17.7175 36.7571 17.8692 36.4766C18.021 36.1962 18.2243 35.9644 18.4819 35.7784C18.6766 35.6353 18.94 35.5151 19.2749 35.4149C19.6099 35.3148 19.9706 35.2661 20.3543 35.2661C20.9325 35.2661 21.4392 35.3491 21.8773 35.5151C22.3153 35.6811 22.6359 35.9071 22.8449 36.1904C23.0539 36.4737 23.197 36.8544 23.2743 37.3323L22.0548 37.4983C22.0004 37.1206 21.84 36.8229 21.5738 36.6111C21.3075 36.3993 20.9325 36.2935 20.4458 36.2935C19.8733 36.2935 19.4639 36.3879 19.2177 36.5768C18.9714 36.7657 18.8512 36.9889 18.8512 37.2436C18.8512 37.4067 18.9027 37.5498 19.003 37.6814C19.106 37.8159 19.2635 37.9275 19.4811 38.0134C19.607 38.0591 19.9735 38.1651 20.5833 38.331C21.4679 38.5657 22.0833 38.7603 22.4327 38.9091C22.7819 39.0608 23.0567 39.2783 23.2543 39.5644C23.4518 39.8506 23.552 40.2054 23.552 40.6318C23.552 41.0468 23.4318 41.4389 23.1884 41.808C22.9451 42.1743 22.5958 42.4604 22.1377 42.6608C21.6797 42.8611 21.1615 42.9613 20.5833 42.9613C19.627 42.9613 18.897 42.7638 18.396 42.366C17.8951 41.9739 17.5744 41.3845 17.437 40.6032Z" fill="white"/>
<path d="M25.0454 34.0713V32.6348H26.2936V34.0713H25.0454ZM25.0454 42.7996V35.4364H26.2936V42.7996H25.0454Z" fill="white"/>
<path d="M28.1941 42.8007V35.4375H29.3163V36.4849C29.8574 35.675 30.639 35.2715 31.661 35.2715C32.1047 35.2715 32.5142 35.3517 32.8863 35.5119C33.2585 35.6721 33.5362 35.881 33.7223 36.1386C33.9083 36.3962 34.0372 36.7052 34.1116 37.0601C34.1574 37.2919 34.1803 37.6954 34.1803 38.2735V42.8007H32.9321V38.3221C32.9321 37.8127 32.8835 37.435 32.7861 37.1803C32.6888 36.9284 32.517 36.7281 32.2679 36.5764C32.0218 36.4276 31.7297 36.3504 31.3976 36.3504C30.8652 36.3504 30.4071 36.5192 30.0206 36.8569C29.6341 37.1946 29.4423 37.8356 29.4423 38.7771V42.7978H28.1941V42.8007Z" fill="white"/>
<path d="M41.1394 40.4312L42.4305 40.5914C42.2272 41.3441 41.8493 41.9307 41.2997 42.3456C40.75 42.7606 40.0458 42.9695 39.1898 42.9695C38.1134 42.9695 37.2574 42.6375 36.6276 41.9736C35.9949 41.3097 35.6799 40.3797 35.6799 39.1835C35.6799 37.9443 35.9977 36.9828 36.6362 36.2989C37.2745 35.6149 38.1019 35.2715 39.1182 35.2715C40.103 35.2715 40.9075 35.6063 41.5316 36.276C42.1557 36.9456 42.4677 37.89 42.4677 39.1034C42.4677 39.1778 42.4649 39.2893 42.462 39.4353H36.9682C37.0141 40.2452 37.2431 40.8633 37.6553 41.2925C38.0676 41.7218 38.58 41.9364 39.1955 41.9364C39.6536 41.9364 40.0429 41.8163 40.3693 41.5758C40.6928 41.3412 40.9476 40.9577 41.1394 40.4312ZM37.0398 38.4137H41.1537C41.0993 37.7955 40.9419 37.3291 40.6813 37.02C40.2834 36.5393 39.7681 36.2989 39.1354 36.2989C38.5628 36.2989 38.079 36.4906 37.6897 36.8741C37.2975 37.2575 37.0799 37.7698 37.0398 38.4137Z" fill="white"/>
<path d="M43.4954 40.6032L44.7292 40.4086C44.7979 40.9037 44.9926 41.2814 45.3076 41.5447C45.6253 41.808 46.0662 41.9397 46.6359 41.9397C47.2085 41.9397 47.635 41.8223 47.9127 41.5905C48.1904 41.3558 48.3278 41.084 48.3278 40.7692C48.3278 40.4888 48.2048 40.2656 47.9614 40.1024C47.7896 39.9908 47.3659 39.8506 46.6846 39.6789C45.7684 39.4471 45.1329 39.2468 44.7808 39.078C44.4258 38.9091 44.1596 38.6744 43.9763 38.3768C43.7931 38.0792 43.7015 37.7501 43.7015 37.3895C43.7015 37.0605 43.776 36.7571 43.9277 36.4766C44.0794 36.1962 44.2827 35.9644 44.5403 35.7784C44.735 35.6353 44.9984 35.5151 45.3333 35.4149C45.6682 35.3148 46.029 35.2661 46.4126 35.2661C46.9909 35.2661 47.4976 35.3491 47.9357 35.5151C48.3737 35.6811 48.6943 35.9071 48.9033 36.1904C49.1122 36.4737 49.2554 36.8544 49.3327 37.3323L48.1131 37.4983C48.0587 37.1206 47.8984 36.8229 47.6322 36.6111C47.3659 36.3993 46.9909 36.2935 46.5043 36.2935C45.9316 36.2935 45.5223 36.3879 45.276 36.5768C45.0299 36.7657 44.9096 36.9889 44.9096 37.2436C44.9096 37.4067 44.9611 37.5498 45.0613 37.6814C45.1644 37.8159 45.3219 37.9275 45.5394 38.0134C45.6654 38.0591 46.0318 38.1651 46.6416 38.331C47.5262 38.5657 48.1418 38.7603 48.491 38.9091C48.8403 39.0608 49.1151 39.2783 49.3127 39.5644C49.5102 39.8506 49.6104 40.2054 49.6104 40.6318C49.6104 41.0468 49.4901 41.4389 49.2468 41.808C49.0035 42.1743 48.6542 42.4604 48.1962 42.6608C47.7381 42.8611 47.2199 42.9613 46.6416 42.9613C45.6855 42.9613 44.9554 42.7638 44.4544 42.366C43.9563 41.9739 43.6356 41.3845 43.4954 40.6032Z" fill="white"/>
<path d="M50.5952 40.6032L51.8291 40.4086C51.8978 40.9037 52.0925 41.2814 52.4074 41.5447C52.7252 41.808 53.166 41.9397 53.7358 41.9397C54.3083 41.9397 54.7349 41.8223 55.0126 41.5905C55.2903 41.3558 55.4277 41.084 55.4277 40.7692C55.4277 40.4888 55.3046 40.2656 55.0613 40.1024C54.8895 39.9908 54.4658 39.8506 53.7844 39.6789C52.8683 39.4471 52.2327 39.2468 51.8807 39.078C51.5256 38.9091 51.2594 38.6744 51.0762 38.3768C50.893 38.0792 50.8014 37.7501 50.8014 37.3895C50.8014 37.0605 50.8758 36.7571 51.0275 36.4766C51.1793 36.1962 51.3825 35.9644 51.6401 35.7784C51.8348 35.6353 52.0982 35.5151 52.4332 35.4149C52.7681 35.3148 53.1288 35.2661 53.5125 35.2661C54.0907 35.2661 54.5975 35.3491 55.0355 35.5151C55.4735 35.6811 55.7941 35.9071 56.0031 36.1904C56.2121 36.4737 56.3553 36.8544 56.4326 37.3323L55.213 37.4983C55.1586 37.1206 54.9983 36.8229 54.732 36.6111C54.4658 36.3993 54.0907 36.2935 53.604 36.2935C53.0315 36.2935 52.6221 36.3879 52.3759 36.5768C52.1297 36.7657 52.0095 36.9889 52.0095 37.2436C52.0095 37.4067 52.061 37.5498 52.1612 37.6814C52.2643 37.8159 52.4217 37.9275 52.6393 38.0134C52.7653 38.0591 53.1317 38.1651 53.7415 38.331C54.6261 38.5657 55.2416 38.7603 55.5909 38.9091C55.9401 39.0608 56.215 39.2783 56.4125 39.5644C56.61 39.8506 56.7102 40.2054 56.7102 40.6318C56.7102 41.0468 56.59 41.4389 56.3467 41.808C56.1033 42.1743 55.7541 42.4604 55.296 42.6608C54.838 42.8611 54.3197 42.9613 53.7415 42.9613C52.7853 42.9613 52.0553 42.7638 51.5543 42.366C51.0562 41.9739 50.7355 41.3845 50.5952 40.6032Z" fill="white"/>
<path d="M63.104 42.7996V32.6348H66.9401C67.6161 32.6348 68.1312 32.6662 68.486 32.7321C68.9872 32.815 69.4051 32.9724 69.7428 33.2071C70.0804 33.4417 70.3524 33.768 70.5587 34.1887C70.765 34.6093 70.8682 35.073 70.8682 35.5766C70.8682 36.4408 70.5929 37.1734 70.0436 37.7715C69.4938 38.3696 68.4978 38.6701 67.0603 38.6701H64.4524V42.8024H63.104V42.7996ZM64.4496 37.4682H67.0774C67.9479 37.4682 68.5635 37.308 68.9301 36.9817C69.296 36.6583 69.4767 36.2033 69.4767 35.6167C69.4767 35.1902 69.3676 34.8268 69.1534 34.5235C68.9386 34.2201 68.6548 34.0198 68.3027 33.9225C68.0767 33.8624 67.6588 33.831 67.0459 33.831H64.4438V37.4682H64.4496Z" fill="white"/>
<path d="M77.3852 41.8925C76.924 42.2846 76.4779 42.5622 76.0509 42.7253C75.6245 42.8856 75.1633 42.9686 74.6739 42.9686C73.8638 42.9686 73.2423 42.7711 72.8074 42.3762C72.3725 41.9813 72.155 41.4747 72.155 40.8624C72.155 40.5018 72.2378 40.1727 72.4007 39.875C72.5643 39.5774 72.7792 39.3371 73.0452 39.1567C73.3113 38.9765 73.6089 38.8391 73.944 38.7475C74.1903 38.6817 74.5596 38.6187 75.0549 38.5587C76.0627 38.4385 76.8038 38.2954 77.2821 38.1294C77.288 37.9577 77.288 37.8489 77.288 37.8032C77.288 37.2938 77.1704 36.936 76.9326 36.7271C76.6152 36.4467 76.1396 36.3036 75.5102 36.3036C74.9229 36.3036 74.488 36.4067 74.2101 36.6127C73.9295 36.8188 73.7239 37.1822 73.5892 37.7058L72.3692 37.5399C72.4809 37.0191 72.6642 36.5955 72.9165 36.275C73.1714 35.9545 73.5373 35.7056 74.0182 35.5338C74.4991 35.3593 75.0576 35.2734 75.6902 35.2734C76.3203 35.2734 76.8301 35.3478 77.2223 35.4967C77.6145 35.6455 77.9036 35.8314 78.0895 36.0547C78.2754 36.2779 78.4042 36.5612 78.4791 36.9046C78.5192 37.1164 78.5415 37.4998 78.5415 38.055V39.7176C78.5415 40.8766 78.5678 41.6121 78.6216 41.9183C78.6762 42.2245 78.7793 42.5193 78.937 42.8026H77.6342C77.5054 42.5422 77.4227 42.2388 77.3852 41.8925ZM77.2821 39.1052C76.8301 39.2912 76.1481 39.4486 75.2435 39.5774C74.731 39.6518 74.3677 39.7348 74.1562 39.8264C73.944 39.918 73.7778 40.0553 73.6634 40.2328C73.5491 40.4102 73.4887 40.6076 73.4887 40.8251C73.4887 41.1571 73.6148 41.4347 73.8665 41.6579C74.1187 41.8782 74.488 41.9899 74.9748 41.9899C75.4557 41.9899 75.8821 41.8839 76.2572 41.675C76.6323 41.4661 76.9069 41.1771 77.0817 40.8108C77.2164 40.5304 77.2821 40.1126 77.2821 39.5631V39.1052Z" fill="white"/>
<path d="M80.3582 42.8026V35.4394H81.4836V36.5555C81.7693 36.0346 82.0361 35.6883 82.2765 35.5224C82.5196 35.3564 82.7857 35.2734 83.078 35.2734C83.4985 35.2734 83.9255 35.4079 84.3605 35.6769L83.9308 36.8359C83.6246 36.6556 83.3211 36.5641 83.015 36.5641C82.743 36.5641 82.4966 36.647 82.2792 36.8102C82.0617 36.9733 81.9073 37.2022 81.8153 37.4941C81.678 37.9377 81.6064 38.4242 81.6064 38.9507V42.8054H80.3582V42.8026Z" fill="white"/>
<path d="M88.6807 41.6832L88.8607 42.7849C88.5086 42.8593 88.1939 42.8965 87.916 42.8965C87.464 42.8965 87.1118 42.825 86.8628 42.6819C86.6132 42.5388 86.4358 42.3499 86.3359 42.1182C86.2328 41.8835 86.1842 41.3941 86.1842 40.6444V36.409H85.2677V35.4389H86.1842V33.616L87.4265 32.8662V35.4389H88.6833V36.409H87.4265V40.7159C87.4265 41.0708 87.4495 41.2997 87.4922 41.4027C87.5356 41.5057 87.6065 41.5858 87.7071 41.646C87.8069 41.7061 87.9475 41.7375 88.1334 41.7375C88.2707 41.7318 88.454 41.7175 88.6807 41.6832Z" fill="white"/>
<path d="M89.9041 42.7996V35.4365H91.0262V36.4839C91.5675 35.674 92.3487 35.2705 93.3709 35.2705C93.8144 35.2705 94.2243 35.3506 94.5962 35.5109C94.9687 35.6712 95.2459 35.8801 95.4319 36.1376C95.6184 36.3951 95.7472 36.7042 95.8214 37.0591C95.8674 37.2908 95.8904 37.6944 95.8904 38.2724V42.7996H94.6422V38.3211C94.6422 37.8117 94.5936 37.4339 94.4963 37.1793C94.3984 36.9274 94.227 36.7271 93.978 36.5755C93.7316 36.4267 93.4399 36.3494 93.1075 36.3494C92.5753 36.3494 92.1167 36.5182 91.7304 36.8559C91.3441 37.1936 91.1523 37.8346 91.1523 38.7761V42.7968H89.9041V42.7996Z" fill="white"/>
<path d="M102.844 40.4301L104.135 40.5904C103.932 41.343 103.554 41.9297 103.004 42.3447C102.455 42.7596 101.751 42.9685 100.895 42.9685C99.8177 42.9685 98.9623 42.6365 98.3323 41.9726C97.7022 41.3087 97.3843 40.3786 97.3843 39.1824C97.3843 37.9433 97.7022 36.9818 98.3408 36.2979C98.9794 35.6139 99.8065 35.2705 100.823 35.2705C101.808 35.2705 102.612 35.6053 103.236 36.275C103.86 36.9446 104.172 37.889 104.172 39.1023C104.172 39.1767 104.17 39.2884 104.167 39.4343H98.6726C98.7186 40.2442 98.9479 40.8623 99.3598 41.2915C99.7724 41.7208 100.285 41.9354 100.9 41.9354C101.358 41.9354 101.747 41.8152 102.074 41.5749C102.398 41.3402 102.655 40.9567 102.844 40.4301ZM98.7442 38.4126H102.858C102.804 37.7945 102.647 37.3281 102.386 37.019C101.988 36.5382 101.473 36.2979 100.84 36.2979C100.268 36.2979 99.7836 36.4896 99.394 36.873C99.0017 37.2566 98.7843 37.7688 98.7442 38.4126Z" fill="white"/>
<path d="M105.688 42.7996V35.4365H106.811V36.5526C107.097 36.0317 107.363 35.6854 107.604 35.5195C107.847 35.3535 108.113 35.2705 108.405 35.2705C108.826 35.2705 109.253 35.405 109.687 35.674L109.258 36.833C108.952 36.6527 108.648 36.5612 108.342 36.5612C108.07 36.5612 107.824 36.6441 107.606 36.8072C107.389 36.9704 107.234 37.1993 107.142 37.4912C107.005 37.9347 106.933 38.4212 106.933 38.9478V42.8025H105.688V42.7996Z" fill="white"/>
</g>
<defs>
<clipPath id="clip0_37_28">
<rect width="113" height="44" fill="white"/>
</clipPath>
</defs>
</svg>
